# xmcd CD database file
#
# Track frame offsets:
#	150
#	23303
#	35983
#	55650
#	87947
#	105406
#	128027
#	152131
#	174078
#
# Disc length: 2571 seconds
#
# Revision: 0
# Processed by: cddbd v1.5.2PL0 Copyright (c) Steve Scherf et al.
# Submitted via: CDex 1.51
#
DISCID=5f0a0909
DTITLE=Nadelöhr - Merry Melodies - Musik zu Trickfilmen
DYEAR=2001
DGENRE=Jazz
TTITLE0=Of All Birds That I Do Know This One Is the Most Complicated Character
TTITLE1=Fräulein Schön und das Tier
TTITLE2=OOH
TTITLE3=Dirdy Birdy
TTITLE4=Changeant
TTITLE5=Blue Velvet
TTITLE6=Für Vision
TTITLE7=Ayurveda
TTITLE8=Cowcount
EXTD=YEAR: 2001
EXTT0=
EXTT1=
EXTT2=
EXTT3=
EXTT4=
EXTT5=
EXTT6=
EXTT7=
EXTT8=
PLAYORDER=
